<?xml version="1.0" encoding="UTF-8" standalone="no"?>
<!-- Created with Inkscape (http://www.inkscape.org/) -->

<svg
   width="126"
   height="128"
   viewBox="0 0 33.337499 33.866667"
   version="1.1"
   id="svg2201"
   xmlns="http://www.w3.org/2000/svg"
   xmlns:svg="http://www.w3.org/2000/svg">
  <defs
     id="defs2198" />
  <g
     id="layer1">
    <path
       style="fill:#fefefe;stroke-width:0.264583"
       d="m 8.156558,25.989458 c -1.28276,-0.66021 -1.337396,-1.07144 -1.264106,-9.514617 0.0676,-7.788013 0.07412,-7.870224 0.670929,-8.466666 0.602652,-0.602281 0.602794,-0.60229 9.319213,-0.60229 h 8.716551 l 0.602658,0.602662 c 0.6012,0.601193 0.60267,0.62262 0.60267,8.790046 0,8.165975 -0.002,8.188965 -0.60233,8.790045 -0.598411,0.59875 -0.656767,0.6031 -8.995829,0.67062 -6.399699,0.0518 -8.549398,-0.0123 -9.049756,-0.2698 z M 24.820094,16.930885 V 9.39026 h -7.9375 -7.9375 v 7.540625 7.540623 h 7.9375 7.9375 z m -13.229167,1.455208 v -3.704166 h 1.058333 1.058334 v 3.704166 3.704165 H 12.64926 11.590927 Z m 4.233334,-1.5875 v -5.291666 h 1.058333 1.058333 v 5.291666 5.291665 h -1.058333 -1.058333 z m 4.233333,3.175005 v -2.116672 h 1.058334 1.058333 v 2.116672 2.11666 h -1.058333 -1.058334 z"
       id="path2281" />
    <path
       style="fill:#aad1ef;stroke-width:0.264583"
       d="m 12.847698,24.273608 c 2.219193,-0.0443 5.850599,-0.0443 8.069792,0 2.219193,0.0442 0.40349,0.0805 -4.034896,0.0805 -4.438386,0 -6.254089,-0.0362 -4.034896,-0.0805 z"
       id="path2279" />
  </g>
</svg>
