<?xml version="1.0" encoding="UTF-8" standalone="no"?>
<!-- Created with Inkscape (http://www.inkscape.org/) -->

<svg
   width="126"
   height="128"
   viewBox="0 0 33.337499 33.866668"
   version="1.1"
   id="svg3343"
   xmlns="http://www.w3.org/2000/svg"
   xmlns:svg="http://www.w3.org/2000/svg">
  <defs
     id="defs3340" />
  <g
     id="layer1">
    <path
       style="fill:#f3f3f4;stroke-width:0.264583"
       d="m 24.025434,25.103895 -0.77711,-0.859896 0.8599,0.777105 c 0.80154,0.724372 0.98151,0.942687 0.7771,0.942687 -0.0455,0 -0.43248,-0.386953 -0.85989,-0.859896 z m -0.9094,-2.711979 c 0.34177,-0.363802 0.68094,-0.661458 0.7537,-0.661458 0.0728,0 -0.14734,0.297656 -0.48912,0.661458 -0.34177,0.363802 -0.68094,0.661458 -0.7537,0.661458 -0.0728,0 0.14735,-0.297656 0.48912,-0.661458 z M 10.812908,10.882541 c 0.263389,-0.291041 0.538421,-0.529166 0.611181,-0.529166 0.07276,0 -0.08321,0.238125 -0.346597,0.529166 -0.263389,0.291042 -0.538421,0.529167 -0.611181,0.529167 -0.07276,0 0.08321,-0.238125 0.346597,-0.529167 z m 12.269376,-0.198437 c -0.32911,-0.419644 -0.31975,-0.429002 0.0999,-0.09989 0.44073,0.345644 0.58088,0.562916 0.36312,0.562916 -0.0549,0 -0.2633,-0.20836 -0.46302,-0.463021 z M 9.093117,10.270584 c 0,-0.04553 0.386953,-0.432488 0.859895,-0.859895 l 0.859896,-0.777106 -0.777105,0.859896 c -0.724371,0.801543 -0.942686,0.981512 -0.942686,0.777105 z m 15.196897,-0.777105 -0.7771,-0.859896 0.85989,0.777106 c 0.47294,0.427407 0.8599,0.814361 0.8599,0.859895 0,0.204407 -0.21832,0.02444 -0.94269,-0.777105 z"
       id="path3403" />
    <path
       style="fill:#e7e7e8;stroke-width:0.264583"
       d="m 25.098944,23.845502 c -0.2642,-0.291934 -0.43148,-0.577929 -0.37174,-0.635545 0.0597,-0.05762 0.32254,0.181239 0.58399,0.530789 0.57743,0.77198 0.44896,0.835384 -0.21225,0.104756 z"
       id="path3401" />
    <path
       style="fill:#dedfe0;stroke-width:0.264583"
       d="m 26.820204,25.566916 c -0.64268,-0.654844 -1.10898,-1.190625 -1.03622,-1.190625 0.0728,0 0.65812,0.535781 1.3008,1.190625 0.64268,0.654843 1.10898,1.190625 1.03622,1.190625 -0.0728,0 -0.65812,-0.535782 -1.3008,-1.190625 z"
       id="path3399" />
    <path
       style="fill:#d5d6d8;stroke-width:0.264583"
       d="m 26.521864,27.352853 c -0.3291,-0.419644 -0.31974,-0.429002 0.0999,-0.0999 0.25466,0.199721 0.46302,0.40808 0.46302,0.463021 0,0.217763 -0.21727,0.07761 -0.56292,-0.363125 z m -9.684649,-2.366166 c 0.257431,-0.06708 0.614618,-0.06267 0.79375,0.0098 0.179131,0.07248 -0.03149,0.127363 -0.468056,0.121971 -0.436563,-0.0054 -0.583125,-0.06469 -0.325694,-0.131774 z"
       id="path3397" />
    <path
       style="fill:#c3c3c6;stroke-width:0.264583"
       d="m 25.477254,26.29452 -0.64143,-0.727604 0.72761,0.641433 c 0.40018,0.352788 0.7276,0.68021 0.7276,0.727604 0,0.207506 -0.21426,0.03862 -0.81378,-0.641433 z M 16.981008,8.055968 c 0.190996,-0.07643 0.419199,-0.06703 0.507118,0.02089 0.08792,0.08792 -0.06835,0.150452 -0.347266,0.138964 -0.308224,-0.01269 -0.370919,-0.07539 -0.159852,-0.159852 z"
       id="path3395" />
    <path
       style="fill:#bfc0c3;stroke-width:0.264583"
       d="m 24.154344,24.971603 -0.64143,-0.727604 0.7276,0.641433 c 0.68005,0.599516 0.84894,0.813775 0.64143,0.813775 -0.0474,0 -0.37481,-0.327421 -0.7276,-0.727604 z m -12.97831,-2.116666 c -0.329107,-0.419644 -0.319749,-0.429003 0.0999,-0.09989 0.254662,0.199719 0.463021,0.408078 0.463021,0.463021 0,0.217761 -0.217272,0.0776 -0.562916,-0.363126 z m 12.07229,-0.330729 c 0.26339,-0.291042 0.53842,-0.529167 0.61118,-0.529167 0.0728,0 -0.0832,0.238125 -0.34659,0.529167 -0.26339,0.291041 -0.53843,0.529166 -0.61119,0.529166 -0.0728,0 0.0832,-0.238125 0.3466,-0.529166 z m 3.88804,-5.953125 c 0.005,-0.436563 0.0647,-0.583125 0.13177,-0.325694 0.0671,0.257431 0.0627,0.614619 -0.01,0.79375 -0.0725,0.179132 -0.12737,-0.03149 -0.12198,-0.468056 z M 8.320255,16.549033 c 0.01269,-0.308224 0.07539,-0.370919 0.159852,-0.159852 0.07643,0.190996 0.06703,0.419199 -0.02089,0.507118 -0.08792,0.08792 -0.150453,-0.06835 -0.138964,-0.347266 z m 15.834089,-6.923264 -0.64143,-0.727604 0.7276,0.641433 c 0.68005,0.599516 0.84894,0.813775 0.64143,0.813775 -0.0474,0 -0.37481,-0.327422 -0.7276,-0.727604 z"
       id="path3393" />
    <path
       style="fill:#b7b8bb;stroke-width:0.264583"
       d="m 25.458944,26.062643 -1.75323,-1.75323 -1.86101,0.931027 C 16.612592,27.857956 10.677118,25.935313 8.139618,20.80103 7.273493,19.048546 7.171753,18.624374 7.175256,16.780426 c 0.0024,-1.244301 0.176373,-2.533376 0.438986,-3.252051 1.029017,-2.816042 3.437576,-5.222878 6.241375,-6.236911 0.720085,-0.260429 2.02714,-0.432387 3.307292,-0.435111 2.857817,-0.0061 4.679505,0.699426 6.745945,2.612576 2.14471,1.985629 2.97527,3.734547 3.12459,6.579515 0.13174,2.509892 -0.28449,4.106205 -1.58104,6.063643 l -0.81377,1.22857 1.78114,1.844945 c 1.48283,1.535937 1.72657,1.910711 1.45527,2.237609 -0.17924,0.215964 -0.40171,0.392663 -0.49438,0.392663 -0.0927,0 -0.95744,-0.788953 -1.92172,-1.753231 z m -4.573811,-1.792877 c 2.991911,-1.369742 4.875401,-4.320614 4.878041,-7.642463 0.002,-2.233088 -0.67744,-3.980428 -2.19305,-5.641737 -4.256811,-4.666054 -11.712173,-3.50978 -14.403789,2.233928 -1.720669,3.671777 -0.209319,8.491365 3.309412,10.553478 2.633938,1.54359 5.724125,1.726146 8.409386,0.496794 z"
       id="path3391" />
  </g>
</svg>
