<?xml version="1.0" encoding="UTF-8" standalone="no"?>
<!-- Created with Inkscape (http://www.inkscape.org/) -->

<svg
   width="126"
   height="128"
   viewBox="0 0 33.337499 33.866668"
   version="1.1"
   id="svg1897"
   xmlns="http://www.w3.org/2000/svg"
   xmlns:svg="http://www.w3.org/2000/svg">
  <defs
     id="defs1894" />
  <g
     id="layer1">
    <path
       style="fill:#fcfdfd;stroke-width:0.264583"
       d="m 17.091827,26.73782 c -1.52349,-0.2875 -3.20661,-0.97006 -4.24251,-1.72046 l -1.10572,-0.80098 0.73905,-0.7714 c 0.73381,-0.76594 0.74292,-0.76777 1.28505,-0.25886 1.6993,1.59516 5.26035,2.09193 7.55747,1.05427 4.78809,-2.16289 6.01944,-8.2281 2.43292,-11.98374 -2.92495,-3.06286 -7.76174,-3.06286 -10.68668,0 -1.15632,1.21085 -2.05107,3.06404 -2.05918,4.26496 l -0.006,0.8599 h 1.51923 1.51922 l -2.04839,2.04839 -2.04839,2.04838 -2.04839,-2.04838 -2.04838,-2.04839 h 1.50723 1.50723 l 0.16656,-0.99219 c 0.87494,-5.21191 4.42385,-8.36924 9.38242,-8.34717 2.80902,0.0125 4.72546,0.79332 6.63575,2.70361 1.93522,1.93522 2.716,3.85157 2.70361,6.63575 -0.0225,5.06442 -3.60878,8.96357 -8.61722,9.36911 -0.76098,0.0616 -1.68126,0.0559 -2.04506,-0.0128 z m 2.4474,-7.04208 -2.18281,-1.32052 V 15.7617 13.14818 h 0.79375 0.79375 l 0.005,2.3151 0.005,2.3151 1.71472,1.00272 c 0.9431,0.55149 1.71473,1.09428 1.71473,1.2062 0,0.11192 -0.14883,0.38922 -0.33073,0.61623 -0.29177,0.36411 -0.58789,0.25716 -2.51354,-0.90779 z"
       id="path1991" />
    <path
       style="fill:#92c4eb;stroke-width:0.264583"
       d="m 12.329327,23.33463 c 0.34178,-0.3638 0.68094,-0.66145 0.7537,-0.66145 0.0728,0 -0.14734,0.29765 -0.48911,0.66145 -0.34178,0.36381 -0.68094,0.66146 -0.7537,0.66146 -0.0728,0 0.14734,-0.29765 0.48911,-0.66146 z m -4.63641,-3.9026 -2.11046,-2.18281 2.18281,2.11046 2.18281,2.11046 2.18281,-2.11046 2.18282,-2.11046 -2.11046,2.18281 c -1.16076,1.20055 -2.17558,2.18281 -2.25517,2.18281 -0.0796,0 -1.09441,-0.98226 -2.25516,-2.18281 z"
       id="path1989" />
    <path
       style="fill:#57a4e1;stroke-width:0.264583"
       d="m 23.441827,22.54088 c 0.34178,-0.3638 0.68094,-0.66145 0.7537,-0.66145 0.0728,0 -0.14734,0.29765 -0.48911,0.66145 -0.34178,0.36381 -0.68094,0.66146 -0.7537,0.66146 -0.0728,0 0.14734,-0.29765 0.48911,-0.66146 z"
       id="path1987" />
  </g>
</svg>
