<?xml version="1.0" encoding="UTF-8" standalone="no"?>
<!-- Created with Inkscape (http://www.inkscape.org/) -->

<svg
   width="126"
   height="128"
   viewBox="0 0 33.337499 33.866668"
   version="1.1"
   id="svg1327"
   xmlns="http://www.w3.org/2000/svg"
   xmlns:svg="http://www.w3.org/2000/svg">
  <defs
     id="defs1324" />
  <g
     id="layer1">
    <path
       style="fill:#fefefe;stroke-width:0.264583"
       d="M 7.714739,24.8001 C 7.357552,24.44291 7.065308,24.02078 7.065308,23.86203 c 0,-0.15875 0.292244,-0.58088 0.649431,-0.93807 0.357188,-0.35718 0.779319,-0.64943 0.938069,-0.64943 0.15875,0 0.580881,0.29225 0.938068,0.64943 0.357188,0.35719 0.649432,0.77932 0.649432,0.93807 0,0.37467 -1.212837,1.5875 -1.5875,1.5875 -0.15875,0 -0.580881,-0.29224 -0.938069,-0.64943 z m 4.113069,-0.93807 V 22.8037 h 7.408334 7.408334 v 1.05833 1.05834 H 19.236142 11.827808 Z M 7.714739,18.4501 C 7.357552,18.09291 7.065308,17.67078 7.065308,17.51203 c 0,-0.15875 0.292244,-0.58088 0.649431,-0.93807 0.357188,-0.35718 0.779319,-0.64943 0.938069,-0.64943 0.15875,0 0.580881,0.29225 0.938068,0.64943 0.357188,0.35719 0.649432,0.77932 0.649432,0.93807 0,0.37467 -1.212837,1.5875 -1.5875,1.5875 -0.15875,0 -0.580881,-0.29224 -0.938069,-0.64943 z m 4.113069,-0.93807 V 16.4537 h 7.408334 7.408334 v 1.05833 1.05834 H 19.236142 11.827808 Z M 7.714739,12.1001 C 7.357552,11.74291 7.065308,11.32078 7.065308,11.16203 c 0,-0.15875 0.292244,-0.58088 0.649431,-0.93807 0.357188,-0.35718 0.779319,-0.64943 0.938069,-0.64943 0.15875,0 0.580881,0.29225 0.938068,0.64943 0.357188,0.35719 0.649432,0.77932 0.649432,0.93807 0,0.15875 -0.292244,0.58088 -0.649432,0.93807 -0.357187,0.35719 -0.779318,0.64943 -0.938068,0.64943 -0.15875,0 -0.580881,-0.29224 -0.938069,-0.64943 z m 4.113069,-0.93807 V 10.1037 h 7.408334 7.408334 v 1.05833 1.05834 h -7.408334 -7.408334 z"
       id="path1391" />
  </g>
</svg>
