<?xml version="1.0" encoding="UTF-8" standalone="no"?>
<!-- Created with Inkscape (http://www.inkscape.org/) -->

<svg
   width="126"
   height="128"
   viewBox="0 0 33.337499 33.866668"
   version="1.1"
   id="svg314"
   xmlns="http://www.w3.org/2000/svg"
   xmlns:svg="http://www.w3.org/2000/svg">
  <defs
     id="defs311" />
  <g
     id="layer1"
     transform="translate(-7.1448061,-99.189172)">
    <path
       style="fill:#fdfdfd;stroke-width:0.264583"
       d="m 14.693007,124.6783 c -0.31082,-0.15051 -0.69777,-0.56477 -0.8599,-0.92059 -0.40574,-0.89051 -0.40664,-15.69744 -10e-4,-16.58771 0.48569,-1.06598 1.28666,-1.23224 5.9364,-1.23224 h 4.35317 v 1.05832 1.05834 h -4.23333 -4.23334 v 7.40833 7.40833 h 4.23334 4.23333 v 1.05834 1.05833 l -4.43177,-0.0179 c -2.4714,-0.01 -4.68175,-0.13895 -4.9969,-0.29154 z m 13.92167,-4.85516 -0.62633,-0.6667 1.29787,-1.31768 1.29786,-1.31768 h -5.34787 -5.34786 v -1.05833 -1.05833 h 5.34786 5.34787 l -1.30498,-1.3249 -1.30497,-1.3249 0.72177,-0.72177 0.72177,-0.72177 2.57406,2.57407 2.57406,2.57406 -2.50485,2.51531 c -1.37767,1.38342 -2.57574,2.51531 -2.66239,2.51531 -0.0866,0 -0.43939,-0.30001 -0.78387,-0.66669 z"
       id="path380" />
    <path
       style="fill:#90c3ea;stroke-width:0.264583"
       d="m 28.470657,119.89452 -0.7771,-0.8599 0.86753,0.78442 0.86753,0.78442 2.57035,-2.57035 2.57036,-2.57036 -2.57036,-2.57036 -2.57035,-2.57035 -0.86753,0.77838 -0.86753,0.77838 0.86163,-0.91665 0.86163,-0.91666 2.70695,2.70695 2.70695,2.70695 -2.63757,2.64751 c -1.45067,1.45614 -2.70684,2.64752 -2.79148,2.64752 -0.0847,0 -0.5036,-0.38696 -0.93101,-0.8599 z m -13.94454,-13.72501 c 0.17948,-0.18082 0.39297,-0.26211 0.47444,-0.18065 0.0815,0.0815 -0.0654,0.2294 -0.32632,0.32876 -0.37709,0.14359 -0.40748,0.1132 -0.14812,-0.14811 z"
       id="path378" />
  </g>
</svg>
