<?xml version="1.0" encoding="UTF-8" standalone="no"?>
<!-- Created with Inkscape (http://www.inkscape.org/) -->

<svg
   width="126"
   height="128"
   viewBox="0 0 33.337501 33.866666"
   version="1.1"
   id="svg684"
   xmlns="http://www.w3.org/2000/svg"
   xmlns:svg="http://www.w3.org/2000/svg">
  <defs
     id="defs681" />
  <g
     id="layer1">
    <path
       style="fill:#fdfdfd;stroke-width:0.264583"
       d="m 16.364307,26.775437 c -0.468816,-0.227 -1.154664,-1.22927 -1.154664,-1.68737 0,-0.0659 0.9525,-0.11984 2.116667,-0.11984 1.164167,0 2.116667,0.0539 2.116667,0.11984 0,0.49223 -0.700946,1.46099 -1.232251,1.70307 -0.768872,0.35032 -1.09626,0.34754 -1.846419,-0.0157 z m -7.504664,-3.34101 c 0,-0.26151 0.463308,-0.92788 1.029573,-1.48082 l 1.029573,-1.00536 0.112026,-3.74469 c 0.12369,-4.13459 0.425626,-5.23621 1.834001,-6.69146 0.441845,-0.45655 1.269248,-1.04018 1.838674,-1.29695 0.680775,-0.30699 1.03532,-0.64028 1.03532,-0.97325 0,-0.8155 0.465282,-1.45652 1.189075,-1.63818 0.96453,-0.24208 1.672594,0.24081 1.866179,1.27271 0.134411,0.71647 0.375075,0.98699 1.215044,1.36576 0.576089,0.25978 1.399011,0.87275 1.828716,1.36216 1.393379,1.58697 1.645702,2.52447 1.776137,6.59921 l 0.11987,3.74469 1.029573,1.00536 c 0.566265,0.55294 1.029573,1.21931 1.029573,1.48082 0,0.44766 -0.495113,0.47547 -8.466667,0.47547 -7.971554,0 -8.466667,-0.0278 -8.466667,-0.47547 z"
       id="path750" />
    <path
       style="fill:#97c7ec;stroke-width:0.264583"
       d="m 9.785685,21.793227 c 0.568389,-0.58208 1.092966,-1.05833 1.165726,-1.05833 0.07276,0 -0.332754,0.47625 -0.901143,1.05833 -0.568389,0.58208 -1.092966,1.05833 -1.165727,1.05833 -0.07276,0 0.332754,-0.47625 0.901144,-1.05833 z m 14.804218,-0.0661 -1.045884,-1.12447 1.124479,1.04588 c 0.618464,0.57524 1.124479,1.08125 1.124479,1.12448 0,0.20018 -0.230412,-1.3e-4 -1.203074,-1.04589 z m -13.592705,-7.76111 c 0.01269,-0.30822 0.07539,-0.37092 0.159852,-0.15985 0.07643,0.191 0.06703,0.4192 -0.02089,0.50712 -0.08792,0.0879 -0.150453,-0.0683 -0.138964,-0.34727 z m 12.435417,0 c 0.0127,-0.30822 0.07539,-0.37092 0.159853,-0.15985 0.07643,0.191 0.06703,0.4192 -0.02089,0.50712 -0.08792,0.0879 -0.150453,-0.0683 -0.138965,-0.34727 z m -10.604222,-3.68211 c 0.341774,-0.36381 0.680939,-0.66146 0.7537,-0.66146 0.07276,0 -0.147342,0.29765 -0.489117,0.66146 -0.341774,0.3638 -0.680939,0.66145 -0.753699,0.66145 -0.07276,0 0.147342,-0.29765 0.489116,-0.66145 z m 8.711225,-0.0661 -0.641433,-0.7276 0.727604,0.64143 c 0.680056,0.59952 0.848939,0.81377 0.641434,0.81377 -0.04739,0 -0.374816,-0.32742 -0.727605,-0.7276 z"
       id="path748" />
  </g>
</svg>
