<?xml version="1.0" encoding="UTF-8" standalone="no"?>
<!-- Created with Inkscape (http://www.inkscape.org/) -->

<svg
   width="126"
   height="128"
   viewBox="0 0 33.337501 33.866666"
   version="1.1"
   id="svg965"
   xmlns="http://www.w3.org/2000/svg"
   xmlns:svg="http://www.w3.org/2000/svg">
  <defs
     id="defs962" />
  <g
     id="layer1">
    <path
       style="fill:#fdfdfd;stroke-width:0.264583"
       d="m 5.790606,22.881775 c 0.120757,-1.89644 0.520337,-2.53633 2.069758,-3.3145 3.426019,-1.72068 9.118943,-1.36075 11.626474,0.73507 0.839442,0.70161 0.919641,0.89938 1.023011,2.52277 l 0.112162,1.76147 h -7.46998 -7.469979 z m 16.886426,-0.16041 c 0,-1.87362 -0.359943,-3.00162 -1.173179,-3.67655 -0.742271,-0.61603 -0.454903,-0.84602 0.84245,-0.67425 2.192937,0.29034 4.665671,1.14152 5.607204,1.93015 0.839224,0.70293 0.919665,0.90143 1.023008,2.5244 l 0.112163,1.76147 H 25.882855 22.677032 Z M 11.91523,15.737029 c -1.093677,-0.479854 -1.73504,-1.489465 -1.769003,-2.784703 -0.03564,-1.359128 0.755919,-2.419803 2.139985,-2.86755 2.011873,-0.650844 3.848395,0.714068 3.848395,2.860145 0,2.252086 -2.172933,3.689992 -4.219377,2.792108 z m 8.466668,0 c -1.093678,-0.479854 -1.735041,-1.489465 -1.769004,-2.784703 -0.03564,-1.359128 0.755919,-2.419803 2.139985,-2.86755 2.011873,-0.650844 3.848395,0.714068 3.848395,2.860145 0,2.252086 -2.172933,3.689992 -4.219376,2.792108 z"
       id="path1035" />
    <path
       style="fill:#c8e1f4;stroke-width:0.264583"
       d="m 12.044089,18.320435 c 0.190996,-0.0764 0.419199,-0.067 0.507118,0.0209 0.08792,0.0879 -0.06835,0.15046 -0.347266,0.13897 -0.308224,-0.0127 -0.370919,-0.0754 -0.159852,-0.15985 z m 1.852083,0 c 0.190996,-0.0764 0.419199,-0.067 0.507118,0.0209 0.08792,0.0879 -0.06835,0.15046 -0.347265,0.13897 -0.308225,-0.0127 -0.37092,-0.0754 -0.159853,-0.15985 z m 8.466667,0 c 0.190996,-0.0764 0.4192,-0.067 0.507118,0.0209 0.08792,0.0879 -0.06835,0.15046 -0.347265,0.13897 -0.308225,-0.0127 -0.37092,-0.0754 -0.159853,-0.15985 z"
       id="path1033" />
    <path
       style="fill:#80bbe8;stroke-width:0.264583"
       d="m 15.004115,15.49086 c 0,-0.05494 0.208359,-0.263302 0.463021,-0.463021 0.419644,-0.329108 0.429002,-0.31975 0.09989,0.09989 -0.345643,0.44073 -0.562915,0.580888 -0.562915,0.363127 z m 8.466667,0 c 0,-0.05494 0.208359,-0.263302 0.463021,-0.463021 0.419644,-0.329108 0.429002,-0.31975 0.0999,0.09989 -0.345644,0.44073 -0.562916,0.580888 -0.562916,0.363127 z"
       id="path1031" />
    <path
       style="fill:#61aae3;stroke-width:0.264583"
       d="m 21.055783,18.831895 c -0.329108,-0.41964 -0.319749,-0.429 0.0999,-0.0999 0.254661,0.19972 0.463021,0.40808 0.463021,0.46302 0,0.21776 -0.217273,0.0776 -0.562916,-0.36313 z"
       id="path1029" />
  </g>
</svg>
